<svg version="1.1" style="font-family:&quot;Lucida Grande&quot;, &quot;Lucida Sans Unicode&quot;, Verdana, Arial, Helvetica, sans-serif;font-size:12px;" xmlns="http://www.w3.org/2000/svg" width="690" height="400">
    <desc>Created with Highcharts 3.0.10</desc>
    <defs>
        <clipPath id="highcharts-9">
            <rect x="0" y="0" width="621" height="281"></rect>
        </clipPath>
    </defs>
    <rect x="0" y="0" width="690" height="400" rx="5" ry="5" fill="#FFFFFF" class=" highcharts-background"></rect>
    <g class="highcharts-grid" zIndex="1"></g>
    <g class="highcharts-grid" zIndex="1">
        <path fill="none" d="M 59 54.5 L 680 54.5" stroke="#C0C0C0" stroke-width="1" zIndex="1" opacity="1"></path>
        <path fill="none" d="M 59 125.5 L 680 125.5" stroke="#C0C0C0" stroke-width="1" zIndex="1" opacity="1"></path>
        <path fill="none" d="M 59 196.5 L 680 196.5" stroke="#C0C0C0" stroke-width="1" zIndex="1" opacity="1"></path>
        <path fill="none" d="M 59 266.5 L 680 266.5" stroke="#C0C0C0" stroke-width="1" zIndex="1" opacity="1"></path>
        <path fill="none" d="M 59 336.5 L 680 336.5" stroke="#C0C0C0" stroke-width="1" zIndex="1" opacity="1"></path>
    </g>
    <g class="highcharts-axis" zIndex="2">
        <path fill="none" d="M 154.5 336 L 154.5 341" stroke="#C0D0E0" stroke-width="1" opacity="1"></path>
        <path fill="none" d="M 201.5 336 L 201.5 341" stroke="#C0D0E0" stroke-width="1" opacity="1"></path>
        <path fill="none" d="M 249.5 336 L 249.5 341" stroke="#C0D0E0" stroke-width="1" opacity="1"></path>
        <path fill="none" d="M 297.5 336 L 297.5 341" stroke="#C0D0E0" stroke-width="1" opacity="1"></path>
        <path fill="none" d="M 345.5 336 L 345.5 341" stroke="#C0D0E0" stroke-width="1" opacity="1"></path>
        <path fill="none" d="M 392.5 336 L 392.5 341" stroke="#C0D0E0" stroke-width="1" opacity="1"></path>
        <path fill="none" d="M 440.5 336 L 440.5 341" stroke="#C0D0E0" stroke-width="1" opacity="1"></path>
        <path fill="none" d="M 488.5 336 L 488.5 341" stroke="#C0D0E0" stroke-width="1" opacity="1"></path>
        <path fill="none" d="M 536.5 336 L 536.5 341" stroke="#C0D0E0" stroke-width="1" opacity="1"></path>
        <path fill="none" d="M 583.5 336 L 583.5 341" stroke="#C0D0E0" stroke-width="1" opacity="1"></path>
        <path fill="none" d="M 631.5 336 L 631.5 341" stroke="#C0D0E0" stroke-width="1" opacity="1"></path>
        <path fill="none" d="M 679.5 336 L 679.5 341" stroke="#C0D0E0" stroke-width="1" opacity="1"></path>
        <path fill="none" d="M 106.5 336 L 106.5 341" stroke="#C0D0E0" stroke-width="1" opacity="1"></path>
        <path fill="none" d="M 58.5 336 L 58.5 341" stroke="#C0D0E0" stroke-width="1"></path>
        <text x="369.5" y="383.01325091965407" zIndex="7" text-anchor="middle" transform="translate(0,0)" class=" highcharts-xaxis-title" style="color:#000000;font-weight:bold;fill:#000000;" visibility="visible">
            <tspan x="369.5">Month</tspan>
        </text>
        <path fill="none" d="M 59 336.5 L 680 336.5" stroke="#000000" stroke-width="1" zIndex="7" visibility="visible"></path>
    </g>
    <g class="highcharts-axis" zIndex="2">
        <text x="24.578125" y="195.5" zIndex="7" text-anchor="middle" transform="translate(0,0) rotate(270 24.578125 195.5)" class=" highcharts-yaxis-title" style="color:#000000;font-weight:bold;fill:#000000;" visibility="visible">
            <tspan x="24.578125">Downloads</tspan>
        </text>
    </g>
    <g class="highcharts-series-group" zIndex="3">
        <g class="highcharts-series" visibility="visible" zIndex="0.1" transform="translate(59,55) scale(1 1)" clip-path="url(#highcharts-9)">
            <path
                fill="none"
                d="M 23.884615384615383 222.94364375 C 23.884615384615383 222.94364375 52.54615384615384 200.19318124999998 71.65384615384615 190.69805075 C 90.76153846153845 181.20292025 100.31538461538462 182.99373325000002 119.42307692307692 175.46799125 C 138.53076923076924 167.94224925 148.08461538461538 162.68513264999999 167.19230769230768 153.06934074999998 C 186.3 143.45354884999998 195.85384615384615 127.94885399999998 214.96153846153845 127.38903174999999 C 234.06923076923076 126.82920949999999 243.6230769230769 127.38903174999999 262.7307692307692 126.82920949999999 C 281.8384615384615 126.26938725 291.3923076923076 117.66348125000002 310.49999999999994 115.69353075000001 C 329.6076923076922 113.72358025 339.1615384615384 115.69353075000001 358.2692307692307 113.72358025 C 377.37692307692305 111.75362974999999 386.9307692307692 111.93110935 406.0384615384615 103.21467200000001 C 425.1461538461538 94.49823464999999 434.69999999999993 82.78179914999998 453.80769230769226 70.14139349999999 C 472.9153846153846 57.500987849999994 482.46923076923065 49.66804260000002 501.57692307692304 40.012643749999995 C 520.6846153846153 30.35724490000003 530.2384615384615 21.86439925000002 549.3461538461538 21.86439925000002 C 568.4538461538461 21.86439925000002 597.1153846153845 176.430346"
                stroke="#CC333F"
                stroke-width="1"
                zIndex="1"
                stroke-linejoin="round"
                stroke-linecap="round"></path>
            <path
                fill="none"
                d="M 13.884615384615383 222.94364375 L 23.884615384615383 222.94364375 C 23.884615384615383 222.94364375 52.54615384615384 200.19318124999998 71.65384615384615 190.69805075 C 90.76153846153845 181.20292025 100.31538461538462 182.99373325000002 119.42307692307692 175.46799125 C 138.53076923076924 167.94224925 148.08461538461538 162.68513264999999 167.19230769230768 153.06934074999998 C 186.3 143.45354884999998 195.85384615384615 127.94885399999998 214.96153846153845 127.38903174999999 C 234.06923076923076 126.82920949999999 243.6230769230769 127.38903174999999 262.7307692307692 126.82920949999999 C 281.8384615384615 126.26938725 291.3923076923076 117.66348125000002 310.49999999999994 115.69353075000001 C 329.6076923076922 113.72358025 339.1615384615384 115.69353075000001 358.2692307692307 113.72358025 C 377.37692307692305 111.75362974999999 386.9307692307692 111.93110935 406.0384615384615 103.21467200000001 C 425.1461538461538 94.49823464999999 434.69999999999993 82.78179914999998 453.80769230769226 70.14139349999999 C 472.9153846153846 57.500987849999994 482.46923076923065 49.66804260000002 501.57692307692304 40.012643749999995 C 520.6846153846153 30.35724490000003 530.2384615384615 21.86439925000002 549.3461538461538 21.86439925000002 C 568.4538461538461 21.86439925000002 597.1153846153845 176.430346 597.1153846153845 176.430346 L 607.1153846153845 176.430346"
                stroke-linejoin="round"
                visibility="visible"
                stroke-opacity="0.0001"
                stroke="rgb(192,192,192)"
                stroke-width="21"
                zIndex="2"
                class=" highcharts-tracker"
                style=""></path>
        </g>
        <g class="highcharts-markers highcharts-tracker" visibility="visible" zIndex="0.1" transform="translate(59,55) scale(1 1)" clip-path="none" style="">

            <path fill="#CC333F" d="M 549 20.36439925000002 C 550.998 20.36439925000002 550.998 23.36439925000002 549 23.36439925000002 C 547.002 23.36439925000002 547.002 20.36439925000002 549 20.36439925000002 Z" visibility="inherit"></path>
            <path
                fill="#CC333F"
                d="M 501.57692307692304 38.512643749999995 C 503.574923076923 38.512643749999995 503.574923076923 41.512643749999995 501.57692307692304 41.512643749999995 C 499.57892307692305 41.512643749999995 499.57892307692305 38.512643749999995 501.57692307692304 38.512643749999995 Z"
                visibility="inherit"
                stroke-width="1"></path>
            <path
                fill="#CC333F"
                d="M 453.80769230769226 68.64139349999999 C 455.80569230769225 68.64139349999999 455.80569230769225 71.64139349999999 453.80769230769226 71.64139349999999 C 451.8096923076923 71.64139349999999 451.8096923076923 68.64139349999999 453.80769230769226 68.64139349999999 Z"
                visibility="inherit"
                stroke-width="1"></path>
            <path fill="#CC333F" d="M 406 101.71467200000001 C 407.998 101.71467200000001 407.998 104.71467200000001 406 104.71467200000001 C 404.002 104.71467200000001 404.002 101.71467200000001 406 101.71467200000001 Z" visibility="inherit"></path>
            <path fill="#CC333F" d="M 358 112.22358025 C 359.998 112.22358025 359.998 115.22358025 358 115.22358025 C 356.002 115.22358025 356.002 112.22358025 358 112.22358025 Z" visibility="inherit"></path>
            <path fill="#CC333F" d="M 310 114.19353075000001 C 311.998 114.19353075000001 311.998 117.19353075000001 310 117.19353075000001 C 308.002 117.19353075000001 308.002 114.19353075000001 310 114.19353075000001 Z" visibility="inherit"></path>
            <path fill="#CC333F" d="M 262 125.32920949999999 C 263.998 125.32920949999999 263.998 128.3292095 262 128.3292095 C 260.002 128.3292095 260.002 125.32920949999999 262 125.32920949999999 Z" visibility="inherit"></path>
            <path fill="#CC333F" d="M 214 125.88903174999999 C 215.998 125.88903174999999 215.998 128.88903175 214 128.88903175 C 212.002 128.88903175 212.002 125.88903174999999 214 125.88903174999999 Z" visibility="inherit"></path>
            <path fill="#CC333F" d="M 167 151.56934074999998 C 168.998 151.56934074999998 168.998 154.56934074999998 167 154.56934074999998 C 165.002 154.56934074999998 165.002 151.56934074999998 167 151.56934074999998 Z" visibility="inherit"></path>
            <path fill="#CC333F" d="M 119 173.96799125 C 120.998 173.96799125 120.998 176.96799125 119 176.96799125 C 117.002 176.96799125 117.002 173.96799125 119 173.96799125 Z" visibility="inherit"></path>
            <path fill="#CC333F" d="M 71 189.19805075 C 72.998 189.19805075 72.998 192.19805075 71 192.19805075 C 69.002 192.19805075 69.002 189.19805075 71 189.19805075 Z" visibility="inherit"></path>
            <path fill="#CC333F" d="M 23 221.44364375 C 24.998 221.44364375 24.998 224.44364375 23 224.44364375 C 21.002 224.44364375 21.002 221.44364375 23 221.44364375 Z" visibility="inherit"></path>
        </g>
    </g>
    <text x="345" y="25" text-anchor="middle" class="highcharts-title" zIndex="4" style="color:#000000;font-size:16px;fill:#000000;width:626px;">
        <tspan x="345">Downloads per month</tspan>
    </text>
    <text x="345" y="40" text-anchor="middle" class="highcharts-subtitle" zIndex="4" style="color:#000000;fill:#000000;width:626px;">
        <tspan x="345">Click and drag in the plot to zoom in</tspan>
    </text>
    <g class="highcharts-axis-labels highcharts-xaxis-labels" zIndex="7">
        <text x="82.88461538461539" y="349.2763114494309" text-anchor="end" transform="translate(0,0) rotate(-20 82.88461538461539 349.2763114494309)" style="color:#666;cursor:default;font-size:11px;fill:#666;" opacity="1">
            <tspan x="82.88461538461539">Error: source does not appear to be markup. 2015</tspan>
        </text>
        <text x="130.65384615384616" y="349.2763114494309" text-anchor="end" transform="translate(0,0) rotate(-20 130.65384615384616 349.2763114494309)" style="color:#666;cursor:default;font-size:11px;fill:#666;" opacity="1">
            <tspan x="130.65384615384616">Dec 2015</tspan>
        </text>
        <text x="178.4230769230769" y="349.2763114494309" text-anchor="end" transform="translate(0,0) rotate(-20 178.4230769230769 349.2763114494309)" style="color:#666;cursor:default;font-size:11px;fill:#666;" opacity="1">
            <tspan x="178.4230769230769">Jan 2016</tspan>
        </text>
        <text x="226.19230769230768" y="349.2763114494309" text-anchor="end" transform="translate(0,0) rotate(-20 226.19230769230768 349.2763114494309)" style="color:#666;cursor:default;font-size:11px;fill:#666;" opacity="1">
            <tspan x="226.19230769230768">Feb 2016</tspan>
        </text>
        <text x="273.96153846153845" y="349.2763114494309" text-anchor="end" transform="translate(0,0) rotate(-20 273.96153846153845 349.2763114494309)" style="color:#666;cursor:default;font-size:11px;fill:#666;" opacity="1">
            <tspan x="273.96153846153845">Mar 2016</tspan>
        </text>
        <text x="321.7307692307692" y="349.2763114494309" text-anchor="end" transform="translate(0,0) rotate(-20 321.7307692307692 349.2763114494309)" style="color:#666;cursor:default;font-size:11px;fill:#666;" opacity="1">
            <tspan x="321.7307692307692">Apr 2016</tspan>
        </text>
        <text x="369.5" y="349.2763114494309" text-anchor="end" transform="translate(0,0) rotate(-20 369.5 349.2763114494309)" style="color:#666;cursor:default;font-size:11px;fill:#666;" opacity="1">
            <tspan x="369.5">May 2016</tspan>
        </text>
        <text x="417.2692307692308" y="349.2763114494309" text-anchor="end" transform="translate(0,0) rotate(-20 417.2692307692308 349.2763114494309)" style="color:#666;cursor:default;font-size:11px;fill:#666;" opacity="1">
            <tspan x="417.2692307692308">Jun 2016</tspan>
        </text>
        <text x="465.0384615384615" y="349.2763114494309" text-anchor="end" transform="translate(0,0) rotate(-20 465.0384615384615 349.2763114494309)" style="color:#666;cursor:default;font-size:11px;fill:#666;" opacity="1">
            <tspan x="465.0384615384615">Jul 2016</tspan>
        </text>
        <text x="512.8076923076923" y="349.2763114494309" text-anchor="end" transform="translate(0,0) rotate(-20 512.8076923076923 349.2763114494309)" style="color:#666;cursor:default;font-size:11px;fill:#666;" opacity="1">
            <tspan x="512.8076923076923">Aug 2016</tspan>
        </text>
        <text x="560.5769230769231" y="349.2763114494309" text-anchor="end" transform="translate(0,0) rotate(-20 560.5769230769231 349.2763114494309)" style="color:#666;cursor:default;font-size:11px;fill:#666;" opacity="1">
            <tspan x="560.5769230769231">Sep 2016</tspan>
        </text>
        <text x="608.3461538461538" y="349.2763114494309" text-anchor="end" transform="translate(0,0) rotate(-20 608.3461538461538 349.2763114494309)" style="color:#666;cursor:default;font-size:11px;fill:#666;" opacity="1">
            <tspan x="608.3461538461538">Oct 2016</tspan>
        </text>

    </g>
    <g class="highcharts-axis-labels highcharts-yaxis-labels" zIndex="7">
        <text x="0" y="-9999" text-anchor="end" style="width:208px;color:#666;cursor:default;font-size:11px;fill:#666;">
            <tspan x="0">0M</tspan>
        </text>
        <text x="51" y="271.3515625" text-anchor="end" style="width:208px;color:#666;cursor:default;font-size:11px;fill:#666;" opacity="1">
            <tspan x="51">1M</tspan>
        </text>
        <text x="51" y="201.1015625" text-anchor="end" style="width:208px;color:#666;cursor:default;font-size:11px;fill:#666;" opacity="1">
            <tspan x="51">2M</tspan>
        </text>
        <text x="51" y="130.8515625" text-anchor="end" style="width:208px;color:#666;cursor:default;font-size:11px;fill:#666;" opacity="1">
            <tspan x="51">3M</tspan>
        </text>
        <text x="51" y="60.6015625" text-anchor="end" style="width:208px;color:#666;cursor:default;font-size:11px;fill:#666;" opacity="1">
            <tspan x="51">4M</tspan>
        </text>
    </g>
    <g class="highcharts-tooltip" zIndex="8" style="cursor:default;padding:0;white-space:nowrap;" transform="translate(514,202)" opacity="0" visibility="hidden">
        <rect x="0.5" y="0.5" width="128" height="43.984375" fill="none" fill-opacity="0.85" rx="3" ry="3" isShadow="true" stroke="black" stroke-opacity="0.049999999999999996" stroke-width="5" transform="translate(1, 1)"></rect>
        <rect x="0.5" y="0.5" width="128" height="43.984375" fill="none" fill-opacity="0.85" rx="3" ry="3" isShadow="true" stroke="black" stroke-opacity="0.09999999999999999" stroke-width="3" transform="translate(1, 1)"></rect>
        <rect x="0.5" y="0.5" width="128" height="43.984375" fill="none" fill-opacity="0.85" rx="3" ry="3" isShadow="true" stroke="black" stroke-opacity="0.15" stroke-width="1" transform="translate(1, 1)"></rect>
        <rect x="0.5" y="0.5" width="128" height="43.984375" fill="rgb(255,255,255)" fill-opacity="0.85" rx="3" ry="3" stroke="#CC333F" stroke-width="1" anchorX="141.52116697808412" anchorY="28.970458984375"></rect>
        <text x="8" y="21" zIndex="1" style="font-size:12px;color:#333333;fill:#333333;">
            <tspan style="font-size: 10px" x="8">Nov 2016</tspan>
            <tspan style="fill:#CC333F" x="8" dy="16">postcss</tspan>
            <tspan dx="0">:
            </tspan>
            <tspan style="font-weight:bold" dx="0">1,488,536</tspan>
        </text>
    </g>
</svg>
